<svg xmlns="http://www.w3.org/2000/svg" xmlns:xlink="http://www.w3.org/1999/xlink" width="793" zoomAndPan="magnify" viewBox="0 0 595.5 842.249979" height="1122" preserveAspectRatio="xMidYMid meet" version="1.0"><defs><clipPath id="705b953118"><path d="M 181 279.574219 L 415.976562 279.574219 L 415.976562 561.324219 L 181 561.324219 Z M 181 279.574219 " clip-rule="nonzero"/></clipPath><clipPath id="54abc9e06b"><path d="M 181 279.574219 L 415.976562 279.574219 L 415.976562 561.324219 L 181 561.324219 Z M 181 279.574219 " clip-rule="nonzero"/></clipPath></defs><g clip-path="url(#705b953118)"><path fill="#000000" d="M 413.675781 491.796875 C 411.453125 496.867188 407.390625 500.769531 402.238281 502.78125 L 256.3125 559.804688 C 253.894531 560.75 251.363281 561.230469 248.78125 561.230469 C 240.589844 561.226562 233.167969 556.398438 229.855469 548.921875 L 229.796875 548.835938 C 229.773438 548.800781 229.753906 548.761719 229.738281 548.722656 L 229.460938 547.980469 L 182.617188 427.9375 C 178.460938 417.292969 183.738281 405.25 194.375 401.09375 L 219.789062 391.160156 L 238.609375 317.5 C 239.875 312.550781 244.320312 309.097656 249.421875 309.097656 C 250.351562 309.097656 251.285156 309.214844 252.1875 309.445312 L 266.074219 313 L 268.683594 302.785156 C 269.949219 297.839844 274.394531 294.382812 279.496094 294.382812 C 280.429688 294.382812 281.359375 294.5 282.265625 294.734375 L 296.152344 298.285156 L 298.761719 288.074219 C 300.023438 283.125 304.46875 279.667969 309.570312 279.667969 C 310.5 279.667969 311.429688 279.785156 312.335938 280.019531 L 378.117188 296.847656 C 381 297.585938 383.425781 299.40625 384.949219 301.972656 C 386.46875 304.542969 386.902344 307.546875 386.164062 310.433594 L 371.621094 367.351562 L 379.554688 387.679688 C 386.667969 388.160156 392.902344 392.726562 395.511719 399.40625 L 403.058594 418.75 C 404.855469 423.351562 404.753906 428.378906 402.773438 432.902344 C 401.90625 434.878906 400.730469 436.660156 399.273438 438.203125 L 414 475.9375 C 416.011719 481.09375 415.894531 486.726562 413.675781 491.796875 Z M 413.675781 491.796875 " fill-opacity="1" fill-rule="nonzero"/></g><path fill="#6ec565" d="M 247.441406 319.757812 C 247.675781 318.832031 248.511719 318.214844 249.425781 318.214844 C 249.59375 318.214844 249.761719 318.238281 249.929688 318.28125 L 270.476562 323.535156 L 269.742188 326.414062 L 261.808594 324.382812 C 261.445312 324.289062 261.0625 324.382812 260.78125 324.632812 C 260.503906 324.882812 260.367188 325.253906 260.421875 325.625 C 260.554688 326.570312 260.5 327.519531 260.265625 328.449219 C 259.269531 332.347656 255.292969 334.703125 251.398438 333.707031 C 250.46875 333.472656 249.613281 333.0625 248.847656 332.492188 C 248.546875 332.269531 248.15625 332.207031 247.804688 332.332031 C 247.449219 332.457031 247.183594 332.75 247.089844 333.113281 L 223.792969 424.308594 L 220.390625 425.640625 Z M 250.84375 335.882812 C 250.160156 335.707031 249.503906 335.460938 248.886719 335.144531 L 226.363281 423.304688 L 237.113281 419.101562 C 236.492188 412.335938 237.132812 404.917969 239.027344 397.496094 C 242.792969 382.75 250.828125 371.039062 259.683594 365.773438 L 269.183594 328.585938 L 262.730469 326.933594 C 262.707031 327.628906 262.609375 328.324219 262.4375 329.007812 C 261.132812 334.097656 255.933594 337.1875 250.84375 335.882812 Z M 258.890625 368.878906 C 251.332031 374.292969 244.554688 384.921875 241.199219 398.050781 C 239.425781 404.992188 238.792969 411.917969 239.292969 418.253906 L 247.050781 415.21875 L 249.417969 405.960938 C 249.351562 405.753906 249.277344 405.554688 249.226562 405.339844 C 248.871094 403.894531 248.847656 402.347656 249.160156 400.703125 L 245.960938 399.886719 C 245.628906 399.800781 245.375 399.632812 245.207031 399.382812 C 245.039062 399.136719 244.996094 398.84375 245.082031 398.511719 C 245.160156 398.203125 245.332031 397.980469 245.601562 397.84375 C 245.867188 397.707031 246.167969 397.679688 246.503906 397.765625 L 249.699219 398.582031 C 250.191406 397.203125 250.871094 395.925781 251.746094 394.753906 C 251.988281 394.425781 252.246094 394.128906 252.511719 393.84375 Z M 249.621094 414.214844 L 253.023438 412.886719 L 277.164062 318.398438 C 277.257812 318.035156 277.523438 317.746094 277.878906 317.621094 C 278.230469 317.496094 278.621094 317.554688 278.921875 317.777344 C 279.683594 318.347656 280.542969 318.757812 281.472656 318.996094 C 283.355469 319.476562 285.316406 319.195312 286.992188 318.203125 C 288.667969 317.210938 289.855469 315.625 290.335938 313.738281 C 290.574219 312.808594 290.625 311.859375 290.492188 310.914062 C 290.441406 310.542969 290.578125 310.171875 290.855469 309.921875 C 291.132812 309.671875 291.519531 309.578125 291.882812 309.671875 L 299.8125 311.699219 L 300.550781 308.824219 L 280.003906 303.566406 C 279.835938 303.523438 279.664062 303.503906 279.492188 303.503906 C 279.128906 303.503906 278.773438 303.601562 278.453125 303.789062 C 277.984375 304.070312 277.648438 304.515625 277.511719 305.046875 Z M 255.59375 411.882812 L 267.570312 407.199219 C 266.476562 399.898438 266.886719 391.449219 269.101562 382.78125 C 272.867188 368.039062 280.902344 356.332031 289.757812 351.066406 L 299.257812 313.871094 L 292.804688 312.21875 C 292.78125 312.917969 292.683594 313.609375 292.507812 314.292969 C 291.878906 316.761719 290.328125 318.832031 288.136719 320.132812 C 285.945312 321.429688 283.382812 321.796875 280.917969 321.167969 C 280.234375 320.996094 279.578125 320.746094 278.960938 320.433594 Z M 271.273438 383.339844 C 269.179688 391.53125 268.730469 399.503906 269.664062 406.382812 L 276.285156 403.796875 L 279.492188 391.246094 C 279.425781 391.042969 279.351562 390.839844 279.300781 390.625 C 278.945312 389.179688 278.921875 387.632812 279.234375 385.988281 L 276.035156 385.171875 C 275.703125 385.085938 275.449219 384.917969 275.28125 384.667969 C 275.113281 384.421875 275.070312 384.128906 275.15625 383.796875 C 275.234375 383.488281 275.40625 383.265625 275.675781 383.128906 C 275.941406 382.992188 276.242188 382.964844 276.578125 383.050781 L 279.773438 383.867188 C 280.265625 382.488281 280.945312 381.210938 281.820312 380.039062 C 282.0625 379.714844 282.320312 379.414062 282.585938 379.128906 L 288.964844 354.167969 C 281.40625 359.582031 274.628906 370.207031 271.273438 383.339844 Z M 278.855469 402.792969 L 282.257812 401.460938 L 307.238281 303.683594 C 307.332031 303.324219 307.597656 303.03125 307.949219 302.90625 C 308.304688 302.78125 308.695312 302.839844 308.996094 303.0625 C 309.757812 303.632812 310.617188 304.042969 311.546875 304.28125 C 315.4375 305.277344 319.414062 302.917969 320.410156 299.023438 C 320.648438 298.09375 320.699219 297.144531 320.566406 296.199219 C 320.515625 295.828125 320.648438 295.457031 320.929688 295.207031 C 321.207031 294.957031 321.589844 294.863281 321.953125 294.957031 L 362.511719 305.332031 C 362.875 305.421875 363.167969 305.691406 363.292969 306.042969 C 363.417969 306.398438 363.355469 306.789062 363.132812 307.089844 C 362.5625 307.855469 362.152344 308.710938 361.917969 309.640625 C 361.433594 311.527344 361.714844 313.488281 362.707031 315.164062 C 363.699219 316.839844 365.285156 318.027344 367.171875 318.511719 C 368.101562 318.75 369.050781 318.800781 369.992188 318.667969 C 370.363281 318.617188 370.734375 318.753906 370.984375 319.03125 C 371.234375 319.308594 371.328125 319.695312 371.238281 320.058594 L 357.648438 373.246094 C 358.640625 373.289062 359.625 373.433594 360.597656 373.691406 L 377.335938 308.171875 C 377.617188 307.078125 376.953125 305.960938 375.859375 305.679688 L 310.078125 288.851562 C 309.910156 288.808594 309.738281 288.789062 309.570312 288.789062 C 308.660156 288.789062 307.824219 289.40625 307.585938 290.328125 Z M 309.035156 305.71875 C 309.652344 306.035156 310.308594 306.28125 310.992188 306.457031 C 316.082031 307.757812 321.28125 304.671875 322.582031 299.578125 C 322.757812 298.894531 322.855469 298.203125 322.878906 297.507812 L 360.480469 307.125 C 360.164062 307.746094 359.917969 308.402344 359.746094 309.085938 C 359.113281 311.550781 359.480469 314.117188 360.78125 316.308594 C 362.078125 318.5 364.152344 320.054688 366.617188 320.683594 C 367.300781 320.859375 367.992188 320.957031 368.6875 320.980469 L 355.308594 373.351562 C 354.207031 373.496094 353.113281 373.773438 352.054688 374.1875 L 348.480469 375.585938 C 350.136719 366.53125 349.914062 357.6875 347.78125 350.265625 C 345.214844 341.320312 340.191406 335.472656 333.636719 333.792969 C 327.082031 332.117188 319.867188 334.835938 313.324219 341.453125 C 306.933594 347.914062 301.910156 357.363281 299.175781 368.070312 C 296.742188 377.601562 296.378906 387.128906 298.097656 395.273438 L 284.828125 400.457031 Z M 335.296875 327.292969 C 336.054688 327.488281 336.820312 327.585938 337.578125 327.585938 C 339.199219 327.585938 340.796875 327.148438 342.226562 326.300781 C 344.328125 325.054688 345.820312 323.0625 346.425781 320.695312 C 347.675781 315.804688 344.714844 310.808594 339.828125 309.558594 C 337.460938 308.953125 335 309.304688 332.898438 310.554688 C 330.796875 311.800781 329.304688 313.792969 328.703125 316.160156 C 327.453125 321.050781 330.410156 326.042969 335.296875 327.292969 Z M 346.011719 376.550781 C 347.886719 367.355469 347.769531 358.351562 345.628906 350.886719 C 343.289062 342.738281 338.835938 337.441406 333.082031 335.96875 C 332.007812 335.691406 330.90625 335.558594 329.789062 335.558594 C 324.933594 335.558594 319.765625 338.128906 314.917969 343.03125 C 308.804688 349.210938 303.988281 358.300781 301.347656 368.625 C 299.035156 377.6875 298.652344 386.71875 300.214844 394.445312 L 332.753906 381.730469 C 333.90625 380.273438 334.703125 378.703125 335.132812 377.019531 C 335.683594 374.863281 335.648438 373.050781 335.019531 371.589844 C 334.394531 370.132812 333.234375 369.183594 331.539062 368.75 C 330.539062 368.492188 329.644531 368.59375 328.859375 369.050781 C 328.070312 369.503906 327.390625 370.152344 326.824219 370.992188 C 326.253906 371.832031 325.558594 372.996094 324.742188 374.484375 C 323.753906 376.3125 322.871094 377.765625 322.089844 378.835938 C 321.308594 379.910156 320.316406 380.738281 319.113281 381.320312 C 317.914062 381.902344 316.476562 381.980469 314.808594 381.554688 C 313.421875 381.199219 312.257812 380.53125 311.316406 379.550781 C 310.378906 378.570312 309.730469 377.359375 309.375 375.914062 C 309.019531 374.46875 308.996094 372.921875 309.308594 371.277344 L 306.109375 370.457031 C 305.777344 370.371094 305.523438 370.207031 305.355469 369.957031 C 305.1875 369.707031 305.144531 369.417969 305.230469 369.082031 C 305.308594 368.773438 305.480469 368.550781 305.75 368.414062 C 306.015625 368.277344 306.316406 368.253906 306.652344 368.339844 L 309.847656 369.15625 C 310.339844 367.777344 311.019531 366.5 311.894531 365.328125 C 312.769531 364.152344 313.792969 363.253906 314.964844 362.621094 C 315.386719 362.371094 315.800781 362.300781 316.210938 362.40625 C 316.496094 362.480469 316.714844 362.625 316.878906 362.84375 C 317.042969 363.066406 317.097656 363.277344 317.042969 363.480469 C 316.964844 363.789062 316.761719 364.054688 316.433594 364.269531 C 315.097656 365.214844 314.054688 366.179688 313.3125 367.167969 C 312.566406 368.15625 312.003906 369.394531 311.625 370.882812 C 311.085938 372.992188 311.152344 374.789062 311.828125 376.273438 C 312.5 377.761719 313.683594 378.722656 315.378906 379.15625 C 316.535156 379.449219 317.558594 379.355469 318.449219 378.871094 C 319.335938 378.386719 320.089844 377.699219 320.699219 376.800781 C 321.3125 375.902344 322.035156 374.683594 322.867188 373.144531 C 323.808594 371.386719 324.648438 369.992188 325.390625 368.964844 C 326.132812 367.9375 327.058594 367.148438 328.171875 366.597656 C 329.285156 366.046875 330.609375 365.96875 332.152344 366.359375 C 334.152344 366.875 335.644531 368.027344 336.621094 369.824219 C 337.597656 371.621094 337.898438 373.746094 337.519531 376.195312 L 340.753906 377.023438 C 341.089844 377.105469 341.339844 377.273438 341.507812 377.523438 C 341.652344 377.734375 341.699219 377.980469 341.660156 378.253906 Z M 337.003906 378.363281 C 336.792969 379.046875 336.53125 379.714844 336.230469 380.371094 L 339.644531 379.035156 Z M 335.851562 325.121094 C 337.640625 325.578125 339.496094 325.3125 341.085938 324.371094 C 342.671875 323.429688 343.796875 321.925781 344.253906 320.136719 C 345.195312 316.445312 342.960938 312.675781 339.273438 311.730469 C 338.703125 311.585938 338.125 311.511719 337.550781 311.511719 C 336.328125 311.511719 335.121094 311.839844 334.042969 312.484375 C 332.457031 313.421875 331.332031 314.925781 330.875 316.714844 C 329.929688 320.40625 332.164062 324.175781 335.851562 325.121094 Z M 335.851562 325.121094 " fill-opacity="1" fill-rule="nonzero"/><path fill="#df7a2c" d="M 197.691406 409.589844 L 224.890625 398.957031 L 221.117188 413.730469 L 191.425781 425.332031 C 191.3125 425.097656 191.199219 424.867188 191.105469 424.621094 C 189.976562 421.734375 190.042969 418.582031 191.285156 415.742188 C 192.527344 412.902344 194.800781 410.714844 197.691406 409.589844 Z M 253 551.3125 C 248.207031 553.183594 242.910156 551.632812 239.808594 547.851562 C 240.234375 547.898438 240.695312 547.929688 241.210938 547.929688 L 241.289062 547.929688 C 241.90625 547.925781 242.40625 547.421875 242.402344 546.800781 C 242.402344 546.183594 241.898438 545.683594 241.28125 545.683594 L 241.277344 545.683594 C 239.136719 545.683594 238.160156 545.179688 237.976562 544.730469 C 237.976562 544.726562 237.976562 544.722656 237.972656 544.722656 L 201.097656 450.226562 C 201.816406 450.457031 202.59375 450.628906 203.429688 450.734375 C 203.476562 450.742188 203.523438 450.746094 203.570312 450.746094 C 204.125 450.746094 204.609375 450.332031 204.679688 449.765625 C 204.757812 449.148438 204.324219 448.589844 203.710938 448.511719 C 202.175781 448.316406 200.910156 447.867188 199.914062 447.195312 L 197.25 440.367188 C 200.929688 442.996094 205.824219 443.777344 210.34375 442.015625 L 356.269531 384.992188 C 362.226562 382.660156 368.96875 385.617188 371.292969 391.582031 L 373.332031 396.804688 L 374.625 400.117188 L 380.476562 415.105469 L 336.722656 432.203125 C 336.347656 432.347656 335.988281 432.511719 335.636719 432.691406 C 331.457031 434.835938 329.042969 439.285156 329.363281 443.84375 C 329.441406 444.984375 329.695312 446.128906 330.128906 447.25 C 331.257812 450.140625 333.441406 452.417969 336.285156 453.667969 C 336.65625 453.832031 337.035156 453.976562 337.417969 454.097656 C 338.566406 454.464844 339.753906 454.652344 340.941406 454.652344 C 342.367188 454.652344 343.796875 454.382812 345.167969 453.847656 L 388.777344 436.808594 L 391.914062 444.417969 L 405.511719 479.253906 C 406.636719 482.144531 406.574219 485.296875 405.328125 488.136719 C 404.085938 490.976562 401.8125 493.160156 398.925781 494.289062 Z M 279.210938 533.542969 C 278.984375 532.96875 278.332031 532.683594 277.757812 532.90625 L 268.636719 536.472656 C 268.058594 536.699219 267.773438 537.347656 268 537.925781 C 268.171875 538.367188 268.59375 538.640625 269.042969 538.640625 C 269.179688 538.640625 269.316406 538.613281 269.449219 538.5625 L 278.574219 534.996094 C 279.148438 534.773438 279.433594 534.121094 279.210938 533.542969 Z M 382.605469 442.921875 L 386.167969 452.050781 C 386.339844 452.496094 386.765625 452.765625 387.210938 452.765625 C 387.347656 452.765625 387.484375 452.742188 387.621094 452.6875 C 388.195312 452.464844 388.480469 451.8125 388.257812 451.234375 L 384.695312 442.105469 C 384.46875 441.53125 383.820312 441.246094 383.242188 441.46875 C 382.667969 441.695312 382.382812 442.347656 382.605469 442.921875 Z M 297.453125 526.414062 C 297.226562 525.835938 296.578125 525.554688 296 525.777344 L 286.878906 529.34375 C 286.300781 529.570312 286.015625 530.21875 286.242188 530.796875 C 286.414062 531.238281 286.839844 531.511719 287.285156 531.511719 C 287.421875 531.511719 287.558594 531.484375 287.695312 531.433594 L 296.816406 527.867188 C 297.394531 527.644531 297.679688 526.992188 297.453125 526.414062 Z M 315.699219 519.285156 C 315.472656 518.710938 314.820312 518.425781 314.246094 518.648438 L 305.125 522.214844 C 304.546875 522.441406 304.261719 523.089844 304.488281 523.667969 C 304.660156 524.109375 305.082031 524.382812 305.53125 524.382812 C 305.667969 524.382812 305.804688 524.355469 305.9375 524.304688 L 315.0625 520.738281 C 315.636719 520.511719 315.921875 519.863281 315.699219 519.285156 Z M 333.941406 512.15625 C 333.714844 511.578125 333.066406 511.292969 332.488281 511.519531 L 323.367188 515.085938 C 322.789062 515.308594 322.503906 515.960938 322.730469 516.539062 C 322.902344 516.980469 323.328125 517.25 323.773438 517.25 C 323.910156 517.25 324.046875 517.226562 324.183594 517.175781 L 333.304688 513.609375 C 333.882812 513.382812 334.167969 512.734375 333.941406 512.15625 Z M 352.1875 505.027344 C 351.960938 504.449219 351.308594 504.164062 350.734375 504.390625 L 341.613281 507.957031 C 341.035156 508.179688 340.75 508.832031 340.976562 509.40625 C 341.148438 509.851562 341.570312 510.121094 342.019531 510.121094 C 342.15625 510.121094 342.292969 510.097656 342.425781 510.046875 L 351.550781 506.480469 C 352.125 506.253906 352.410156 505.605469 352.1875 505.027344 Z M 370.429688 497.898438 C 370.203125 497.320312 369.554688 497.035156 368.976562 497.261719 L 359.855469 500.828125 C 359.277344 501.050781 358.992188 501.703125 359.21875 502.28125 C 359.390625 502.722656 359.816406 502.992188 360.261719 502.992188 C 360.398438 502.992188 360.535156 502.96875 360.671875 502.917969 L 369.792969 499.351562 C 370.371094 499.125 370.65625 498.476562 370.429688 497.898438 Z M 388.671875 490.769531 C 388.449219 490.191406 387.796875 489.90625 387.222656 490.132812 L 378.097656 493.695312 C 377.523438 493.921875 377.238281 494.574219 377.464844 495.152344 C 377.636719 495.59375 378.058594 495.863281 378.507812 495.863281 C 378.644531 495.863281 378.78125 495.839844 378.914062 495.789062 L 388.039062 492.222656 C 388.613281 491.996094 388.898438 491.347656 388.671875 490.769531 Z M 400.421875 483.472656 C 400.421875 482.761719 400.289062 482.0625 400.027344 481.398438 L 398.945312 478.621094 C 398.71875 478.042969 398.070312 477.757812 397.492188 477.980469 C 396.914062 478.207031 396.628906 478.859375 396.855469 479.4375 L 397.941406 482.214844 C 398.097656 482.617188 398.179688 483.042969 398.179688 483.472656 C 398.179688 484.785156 397.421875 486.011719 396.246094 486.59375 C 395.691406 486.867188 395.464844 487.539062 395.742188 488.09375 C 395.9375 488.488281 396.332031 488.71875 396.746094 488.71875 C 396.914062 488.71875 397.082031 488.679688 397.242188 488.601562 C 399.171875 487.644531 400.421875 485.632812 400.421875 483.472656 Z M 389.730469 461.179688 L 393.292969 470.308594 C 393.464844 470.75 393.890625 471.023438 394.335938 471.023438 C 394.472656 471.023438 394.609375 470.996094 394.746094 470.945312 C 395.320312 470.71875 395.605469 470.070312 395.382812 469.492188 L 391.820312 460.363281 C 391.59375 459.785156 390.945312 459.503906 390.367188 459.726562 C 389.789062 459.953125 389.503906 460.601562 389.730469 461.179688 Z M 370.445312 405.59375 C 370.21875 405.019531 369.570312 404.734375 368.992188 404.957031 C 368.417969 405.183594 368.132812 405.832031 368.355469 406.410156 L 371.917969 415.539062 C 372.09375 415.984375 372.515625 416.253906 372.964844 416.253906 C 373.097656 416.253906 373.238281 416.226562 373.371094 416.175781 C 373.949219 415.949219 374.234375 415.300781 374.007812 414.722656 Z M 358.089844 391.726562 C 358.269531 392.320312 358.894531 392.65625 359.488281 392.476562 C 359.8125 392.378906 360.148438 392.328125 360.484375 392.328125 C 361.90625 392.328125 363.207031 393.214844 363.722656 394.539062 L 364.792969 397.285156 C 364.96875 397.726562 365.390625 397.996094 365.839844 397.996094 C 365.976562 397.996094 366.113281 397.972656 366.246094 397.921875 C 366.824219 397.695312 367.109375 397.042969 366.882812 396.46875 L 365.8125 393.722656 C 364.964844 391.546875 362.820312 390.085938 360.484375 390.085938 C 359.925781 390.085938 359.375 390.167969 358.839844 390.328125 C 358.25 390.507812 357.914062 391.132812 358.089844 391.726562 Z M 339.871094 398.925781 C 340.042969 399.371094 340.46875 399.640625 340.917969 399.640625 C 341.050781 399.640625 341.191406 399.613281 341.324219 399.5625 L 350.445312 396 C 351.023438 395.773438 351.308594 395.121094 351.082031 394.546875 C 350.855469 393.96875 350.207031 393.683594 349.628906 393.910156 L 340.507812 397.472656 C 339.929688 397.699219 339.644531 398.347656 339.871094 398.925781 Z M 321.628906 406.054688 C 321.800781 406.496094 322.222656 406.769531 322.671875 406.769531 C 322.808594 406.769531 322.945312 406.742188 323.078125 406.691406 L 332.203125 403.128906 C 332.777344 402.902344 333.0625 402.25 332.835938 401.675781 C 332.613281 401.097656 331.960938 400.8125 331.386719 401.039062 L 322.261719 404.601562 C 321.6875 404.828125 321.402344 405.476562 321.628906 406.054688 Z M 304.019531 411.730469 C 303.441406 411.957031 303.15625 412.605469 303.382812 413.183594 C 303.554688 413.628906 303.980469 413.898438 304.425781 413.898438 C 304.5625 413.898438 304.703125 413.871094 304.835938 413.820312 L 313.957031 410.257812 C 314.535156 410.03125 314.820312 409.382812 314.59375 408.804688 C 314.367188 408.226562 313.71875 407.941406 313.140625 408.167969 Z M 285.773438 418.859375 C 285.199219 419.085938 284.914062 419.734375 285.140625 420.3125 C 285.3125 420.757812 285.734375 421.027344 286.183594 421.027344 C 286.320312 421.027344 286.457031 421 286.589844 420.949219 L 295.714844 417.386719 C 296.289062 417.160156 296.574219 416.507812 296.347656 415.933594 C 296.125 415.355469 295.472656 415.070312 294.898438 415.292969 Z M 266.894531 427.441406 C 267.066406 427.886719 267.492188 428.15625 267.9375 428.15625 C 268.074219 428.15625 268.210938 428.132812 268.347656 428.078125 L 277.46875 424.515625 C 278.046875 424.289062 278.332031 423.640625 278.105469 423.0625 C 277.878906 422.484375 277.230469 422.199219 276.652344 422.425781 L 267.53125 425.988281 C 266.953125 426.214844 266.667969 426.867188 266.894531 427.441406 Z M 248.648438 434.570312 C 248.824219 435.015625 249.246094 435.285156 249.695312 435.285156 C 249.832031 435.285156 249.96875 435.261719 250.101562 435.207031 L 259.222656 431.644531 C 259.800781 431.417969 260.085938 430.769531 259.859375 430.191406 C 259.636719 429.613281 258.984375 429.328125 258.410156 429.554688 L 249.285156 433.117188 C 248.710938 433.34375 248.425781 433.996094 248.648438 434.570312 Z M 230.40625 441.699219 C 230.578125 442.144531 231.003906 442.414062 231.449219 442.414062 C 231.585938 442.414062 231.722656 442.390625 231.859375 442.339844 L 240.980469 438.773438 C 241.558594 438.546875 241.84375 437.898438 241.617188 437.320312 C 241.390625 436.742188 240.742188 436.457031 240.164062 436.683594 L 231.042969 440.246094 C 230.464844 440.472656 230.179688 441.125 230.40625 441.699219 Z M 212.160156 448.832031 C 212.335938 449.273438 212.757812 449.542969 213.207031 449.542969 C 213.34375 449.542969 213.480469 449.519531 213.613281 449.46875 L 222.734375 445.902344 C 223.3125 445.675781 223.597656 445.027344 223.371094 444.449219 C 223.148438 443.871094 222.496094 443.585938 221.921875 443.8125 L 212.796875 447.375 C 212.222656 447.601562 211.9375 448.253906 212.160156 448.832031 Z M 251.207031 545.691406 L 260.328125 542.125 C 260.90625 541.902344 261.191406 541.25 260.964844 540.671875 C 260.738281 540.097656 260.089844 539.8125 259.511719 540.035156 L 250.390625 543.601562 C 249.8125 543.828125 249.53125 544.476562 249.753906 545.054688 C 249.925781 545.496094 250.351562 545.769531 250.800781 545.769531 C 250.933594 545.769531 251.074219 545.742188 251.207031 545.691406 Z M 251.207031 545.691406 " fill-opacity="1" fill-rule="nonzero"/><path fill="#e4e13e" d="M 375.847656 397.085938 L 378.25 403.242188 C 379.453125 403.367188 380.523438 404.152344 380.980469 405.324219 L 383.84375 412.660156 C 384.421875 414.144531 383.859375 415.832031 382.5 416.664062 C 382.316406 416.773438 382.140625 416.863281 381.96875 416.929688 L 337.535156 434.292969 C 333.925781 435.703125 331.683594 439.117188 331.578125 442.769531 C 331.542969 443.984375 331.746094 445.230469 332.21875 446.433594 C 332.445312 447.015625 332.726562 447.566406 333.054688 448.085938 C 334.042969 449.632812 335.464844 450.859375 337.183594 451.613281 C 339.472656 452.617188 342.019531 452.667969 344.351562 451.757812 L 389.253906 434.210938 C 394.0625 432.332031 396.449219 426.882812 394.570312 422.066406 L 387.019531 402.722656 C 386.109375 400.390625 384.347656 398.554688 382.054688 397.550781 C 380.074219 396.679688 377.90625 396.523438 375.847656 397.085938 Z M 345.03125 449.199219 C 344.175781 449.535156 343.292969 449.691406 342.425781 449.691406 C 339.554688 449.691406 336.835938 447.957031 335.730469 445.121094 C 334.292969 441.429688 336.121094 437.257812 339.808594 435.816406 C 343.496094 434.375 347.667969 436.203125 349.105469 439.894531 C 350.546875 443.585938 348.71875 447.757812 345.03125 449.199219 Z M 345.03125 449.199219 " fill-opacity="1" fill-rule="nonzero"/><path fill="#ffffff" d="M 401.832031 501.738281 C 406.707031 499.832031 410.546875 496.144531 412.648438 491.347656 C 414.75 486.550781 414.859375 481.222656 412.953125 476.34375 L 398.097656 438.273438 C 398.015625 438.070312 398.0625 437.835938 398.21875 437.675781 C 399.699219 436.171875 400.886719 434.414062 401.746094 432.453125 C 403.605469 428.203125 403.703125 423.480469 402.015625 419.160156 L 394.464844 399.8125 C 391.9375 393.335938 386.066406 389.109375 379.136719 388.78125 C 378.917969 388.769531 378.722656 388.628906 378.640625 388.425781 L 370.511719 367.59375 C 370.46875 367.484375 370.460938 367.363281 370.492188 367.25 L 385.078125 310.152344 C 385.742188 307.558594 385.351562 304.855469 383.984375 302.546875 C 382.613281 300.234375 380.433594 298.597656 377.839844 297.933594 L 312.058594 281.105469 C 311.242188 280.898438 310.40625 280.792969 309.570312 280.792969 C 304.980469 280.792969 300.984375 283.898438 299.847656 288.351562 L 297.097656 299.105469 C 297.0625 299.25 296.96875 299.375 296.839844 299.449219 C 296.714844 299.527344 296.558594 299.546875 296.414062 299.511719 L 281.984375 295.820312 C 281.171875 295.609375 280.332031 295.503906 279.496094 295.503906 C 274.90625 295.503906 270.90625 298.613281 269.769531 303.0625 L 267.023438 313.820312 C 266.988281 313.964844 266.894531 314.085938 266.765625 314.164062 C 266.636719 314.238281 266.484375 314.261719 266.339844 314.222656 L 251.910156 310.53125 C 251.097656 310.324219 250.257812 310.21875 249.421875 310.21875 C 244.832031 310.21875 240.832031 313.328125 239.695312 317.777344 L 220.804688 391.71875 C 220.761719 391.894531 220.636719 392.035156 220.46875 392.101562 L 194.78125 402.140625 C 184.71875 406.070312 179.730469 417.460938 183.660156 427.53125 L 230.816406 548.339844 C 230.832031 548.367188 230.847656 548.394531 230.859375 548.425781 C 233.984375 555.519531 241.019531 560.105469 248.78125 560.105469 C 251.222656 560.105469 253.617188 559.652344 255.90625 558.757812 Z M 248.796875 554.351562 C 243.332031 554.351562 238.167969 551.089844 235.980469 545.753906 C 235.945312 545.683594 235.914062 545.609375 235.886719 545.539062 C 235.886719 545.535156 235.886719 545.535156 235.882812 545.53125 L 232.488281 536.828125 C 232.488281 536.824219 232.484375 536.824219 232.484375 536.824219 L 204.734375 465.714844 L 202.65625 460.386719 C 202.65625 460.386719 202.652344 460.386719 202.652344 460.386719 L 197.945312 448.316406 C 197.941406 448.3125 197.941406 448.3125 197.941406 448.308594 L 193.480469 436.882812 L 192.421875 434.164062 C 192.417969 434.160156 192.417969 434.15625 192.414062 434.148438 L 192.132812 433.421875 L 191.445312 431.664062 L 189.707031 427.207031 L 189.015625 425.4375 C 187.671875 421.992188 187.746094 418.226562 189.230469 414.839844 C 190.714844 411.449219 193.429688 408.84375 196.875 407.496094 L 225.574219 396.28125 L 245.265625 319.199219 C 245.851562 316.90625 248.195312 315.519531 250.484375 316.105469 L 271.03125 321.359375 L 275.339844 304.488281 C 275.625 303.375 276.324219 302.441406 277.308594 301.859375 C 278.296875 301.273438 279.449219 301.105469 280.558594 301.390625 L 301.105469 306.648438 L 305.414062 289.773438 C 306 287.480469 308.339844 286.09375 310.632812 286.679688 L 376.414062 303.503906 C 378.707031 304.09375 380.09375 306.433594 379.507812 308.726562 L 364.417969 367.792969 L 369.980469 382.046875 C 369.980469 382.046875 369.980469 382.050781 369.980469 382.050781 L 375.03125 394.988281 C 377.648438 394.214844 380.425781 394.382812 382.957031 395.492188 C 385.796875 396.738281 387.980469 399.015625 389.109375 401.90625 L 396.660156 421.25 C 398.863281 426.898438 396.328125 433.246094 390.992188 435.882812 L 396.894531 451.003906 L 407.597656 478.433594 C 408.941406 481.882812 408.867188 485.648438 407.378906 489.035156 C 405.894531 492.421875 403.183594 495.03125 399.738281 496.375 L 253.8125 553.402344 C 252.164062 554.042969 250.46875 554.351562 248.796875 554.351562 Z M 220.433594 416.40625 L 219.082031 421.6875 L 196.34375 430.574219 C 194.886719 429.777344 193.601562 428.660156 192.585938 427.285156 Z M 363.464844 371.519531 L 365.148438 375.832031 C 364.394531 375.296875 363.582031 374.828125 362.71875 374.441406 Z M 217.816406 426.644531 L 206.128906 431.210938 C 203.941406 432.066406 201.648438 432.203125 199.507812 431.746094 L 218.398438 424.363281 Z M 209.527344 439.921875 C 203.570312 442.253906 196.832031 439.296875 194.503906 433.335938 L 193.847656 431.65625 C 197.53125 434.285156 202.425781 435.066406 206.945312 433.300781 L 352.871094 376.277344 C 355.753906 375.152344 358.90625 375.214844 361.746094 376.460938 C 364.582031 377.707031 366.765625 379.980469 367.894531 382.867188 L 368.550781 384.554688 C 364.871094 381.921875 359.976562 381.132812 355.453125 382.898438 Z M 337.820312 444.304688 C 336.828125 441.769531 338.085938 438.894531 340.621094 437.90625 C 341.210938 437.675781 341.816406 437.566406 342.414062 437.566406 C 344.386719 437.566406 346.257812 438.761719 347.019531 440.710938 C 348.007812 443.246094 346.75 446.121094 344.214844 447.109375 C 341.679688 448.101562 338.808594 446.84375 337.820312 444.304688 Z M 337.820312 444.304688 " fill-opacity="1" fill-rule="nonzero"/><g clip-path="url(#54abc9e06b)"><path fill="#000000" d="M 414 475.9375 L 399.269531 438.203125 C 400.730469 436.660156 401.90625 434.878906 402.773438 432.902344 C 404.753906 428.378906 404.855469 423.351562 403.058594 418.75 L 395.507812 399.40625 C 392.902344 392.726562 386.667969 388.160156 379.554688 387.679688 L 371.621094 367.351562 L 386.164062 310.433594 C 386.902344 307.546875 386.46875 304.542969 384.945312 301.972656 C 383.425781 299.40625 381 297.585938 378.117188 296.847656 L 312.335938 280.019531 C 311.429688 279.785156 310.5 279.667969 309.570312 279.667969 C 304.46875 279.667969 300.023438 283.125 298.757812 288.070312 L 296.148438 298.285156 L 282.261719 294.730469 C 281.359375 294.5 280.425781 294.382812 279.496094 294.382812 C 274.394531 294.382812 269.949219 297.839844 268.683594 302.785156 L 266.074219 312.996094 L 252.1875 309.445312 C 251.28125 309.214844 250.351562 309.097656 249.421875 309.097656 C 244.320312 309.097656 239.875 312.550781 238.609375 317.5 L 219.792969 391.160156 L 194.375 401.09375 C 183.738281 405.25 178.460938 417.292969 182.617188 427.9375 L 229.460938 547.980469 L 229.738281 548.722656 C 229.753906 548.761719 229.773438 548.800781 229.796875 548.835938 L 229.855469 548.921875 C 233.167969 556.398438 240.589844 561.226562 248.78125 561.230469 C 251.359375 561.230469 253.894531 560.75 256.3125 559.804688 L 402.238281 502.78125 C 407.390625 500.769531 411.453125 496.867188 413.675781 491.796875 C 415.894531 486.726562 416.011719 481.09375 414 475.9375 Z M 248.78125 560.105469 C 241.019531 560.105469 233.984375 555.519531 230.859375 548.425781 C 230.847656 548.394531 230.832031 548.367188 230.816406 548.34375 L 183.660156 427.53125 C 179.730469 417.460938 184.71875 406.070312 194.78125 402.140625 L 220.46875 392.101562 C 220.636719 392.035156 220.761719 391.894531 220.804688 391.71875 L 239.699219 317.777344 C 240.835938 313.328125 244.832031 310.21875 249.421875 310.21875 C 250.261719 310.21875 251.097656 310.324219 251.910156 310.53125 L 266.339844 314.222656 C 266.484375 314.261719 266.636719 314.238281 266.765625 314.164062 C 266.894531 314.085938 266.988281 313.964844 267.023438 313.820312 L 269.773438 303.0625 C 270.910156 298.613281 274.90625 295.503906 279.496094 295.503906 C 280.335938 295.503906 281.171875 295.613281 281.984375 295.820312 L 296.414062 299.511719 C 296.558594 299.546875 296.710938 299.527344 296.839844 299.449219 C 296.96875 299.375 297.0625 299.25 297.097656 299.105469 L 299.847656 288.351562 C 300.984375 283.898438 304.980469 280.792969 309.570312 280.792969 C 310.40625 280.792969 311.242188 280.898438 312.058594 281.105469 L 377.839844 297.933594 C 380.433594 298.597656 382.613281 300.234375 383.984375 302.546875 C 385.351562 304.855469 385.742188 307.558594 385.078125 310.152344 L 370.492188 367.25 C 370.460938 367.363281 370.46875 367.484375 370.511719 367.59375 L 378.640625 388.425781 C 378.722656 388.628906 378.917969 388.769531 379.136719 388.78125 C 386.0625 389.109375 391.9375 393.335938 394.464844 399.8125 L 402.015625 419.160156 C 403.703125 423.480469 403.605469 428.203125 401.746094 432.453125 C 400.886719 434.414062 399.699219 436.171875 398.21875 437.675781 C 398.066406 437.835938 398.015625 438.070312 398.097656 438.273438 L 412.953125 476.34375 C 414.859375 481.222656 414.75 486.550781 412.648438 491.347656 C 410.546875 496.144531 406.707031 499.832031 401.832031 501.738281 L 255.90625 558.761719 C 253.617188 559.652344 251.222656 560.105469 248.78125 560.105469 Z M 335.296875 327.292969 C 336.054688 327.488281 336.820312 327.585938 337.578125 327.585938 C 339.199219 327.585938 340.796875 327.148438 342.226562 326.300781 C 344.328125 325.054688 345.820312 323.0625 346.425781 320.695312 C 347.675781 315.804688 344.714844 310.808594 339.828125 309.558594 C 337.460938 308.953125 335 309.304688 332.898438 310.554688 C 330.796875 311.800781 329.304688 313.792969 328.703125 316.160156 C 327.453125 321.050781 330.410156 326.042969 335.296875 327.292969 Z M 330.875 316.714844 C 331.332031 314.925781 332.457031 313.425781 334.042969 312.484375 C 335.121094 311.84375 336.328125 311.515625 337.550781 311.515625 C 338.125 311.515625 338.703125 311.585938 339.273438 311.730469 C 342.960938 312.675781 345.195312 316.445312 344.253906 320.136719 C 343.796875 321.925781 342.671875 323.429688 341.085938 324.371094 C 339.496094 325.3125 337.640625 325.578125 335.851562 325.121094 C 332.164062 324.175781 329.929688 320.40625 330.875 316.714844 Z M 407.382812 489.039062 C 408.867188 485.648438 408.945312 481.882812 407.597656 478.4375 L 396.894531 451.007812 L 390.992188 435.886719 C 396.328125 433.246094 398.863281 426.902344 396.660156 421.25 L 389.109375 401.90625 C 387.984375 399.015625 385.796875 396.738281 382.957031 395.492188 C 380.425781 394.382812 377.648438 394.21875 375.03125 394.992188 L 369.984375 382.050781 C 369.980469 382.050781 369.980469 382.050781 369.980469 382.050781 L 364.417969 367.792969 L 379.507812 308.730469 C 380.09375 306.4375 378.707031 304.09375 376.414062 303.507812 L 310.636719 286.679688 C 308.34375 286.09375 306.003906 287.484375 305.414062 289.777344 L 301.105469 306.648438 L 280.5625 301.394531 C 279.449219 301.109375 278.296875 301.273438 277.3125 301.859375 C 276.324219 302.445312 275.625 303.378906 275.34375 304.488281 L 271.03125 321.363281 L 250.488281 316.109375 C 248.195312 315.519531 245.855469 316.910156 245.269531 319.203125 L 225.574219 396.28125 L 196.875 407.5 C 193.429688 408.84375 190.714844 411.453125 189.230469 414.839844 C 187.746094 418.230469 187.671875 421.992188 189.015625 425.4375 L 189.707031 427.207031 C 189.707031 427.207031 189.707031 427.210938 189.707031 427.210938 L 191.445312 431.664062 L 192.132812 433.425781 L 192.417969 434.148438 C 192.417969 434.148438 192.417969 434.148438 192.417969 434.152344 C 192.417969 434.15625 192.421875 434.160156 192.421875 434.167969 L 193.484375 436.882812 L 197.941406 448.3125 C 197.941406 448.3125 197.945312 448.316406 197.945312 448.316406 L 202.65625 460.386719 L 204.734375 465.714844 L 232.484375 536.824219 C 232.484375 536.824219 232.488281 536.828125 232.488281 536.828125 L 235.882812 545.53125 C 235.886719 545.535156 235.886719 545.535156 235.886719 545.539062 C 235.914062 545.609375 235.945312 545.683594 235.980469 545.753906 C 238.167969 551.089844 243.335938 554.351562 248.796875 554.351562 C 250.46875 554.351562 252.164062 554.046875 253.8125 553.402344 L 399.738281 496.378906 C 403.183594 495.03125 405.898438 492.425781 407.382812 489.039062 Z M 239.8125 547.851562 C 240.234375 547.898438 240.695312 547.929688 241.210938 547.929688 L 241.289062 547.929688 C 241.90625 547.925781 242.40625 547.421875 242.402344 546.800781 C 242.402344 546.183594 241.898438 545.683594 241.28125 545.683594 L 241.277344 545.683594 C 239.136719 545.683594 238.160156 545.179688 237.976562 544.730469 C 237.976562 544.726562 237.976562 544.722656 237.972656 544.722656 L 201.097656 450.226562 C 201.820312 450.457031 202.59375 450.628906 203.429688 450.734375 C 203.476562 450.742188 203.523438 450.746094 203.570312 450.746094 C 204.128906 450.746094 204.609375 450.332031 204.683594 449.765625 C 204.757812 449.148438 204.324219 448.589844 203.710938 448.511719 C 202.175781 448.316406 200.910156 447.867188 199.914062 447.195312 L 197.25 440.367188 C 200.929688 442.996094 205.824219 443.777344 210.34375 442.015625 L 356.269531 384.992188 C 362.226562 382.660156 368.96875 385.617188 371.292969 391.582031 L 373.335938 396.804688 L 374.625 400.117188 L 380.476562 415.105469 L 336.722656 432.203125 C 336.347656 432.347656 335.988281 432.511719 335.640625 432.691406 C 331.457031 434.835938 329.042969 439.285156 329.363281 443.84375 C 329.441406 444.984375 329.695312 446.128906 330.132812 447.25 C 331.257812 450.140625 333.445312 452.417969 336.285156 453.667969 C 336.660156 453.832031 337.035156 453.976562 337.417969 454.097656 C 338.566406 454.464844 339.753906 454.652344 340.941406 454.652344 C 342.367188 454.652344 343.796875 454.382812 345.167969 453.847656 L 388.78125 436.808594 L 391.914062 444.417969 L 405.511719 479.253906 C 406.636719 482.144531 406.574219 485.296875 405.328125 488.136719 C 404.085938 490.976562 401.8125 493.160156 398.925781 494.289062 L 253 551.3125 C 248.207031 553.183594 242.910156 551.632812 239.8125 547.851562 Z M 249.425781 318.214844 C 249.59375 318.214844 249.761719 318.238281 249.929688 318.28125 L 270.476562 323.535156 L 269.742188 326.414062 L 261.808594 324.382812 C 261.445312 324.289062 261.0625 324.382812 260.78125 324.632812 C 260.503906 324.882812 260.367188 325.253906 260.421875 325.625 C 260.554688 326.570312 260.5 327.519531 260.265625 328.449219 C 259.269531 332.347656 255.292969 334.703125 251.398438 333.707031 C 250.46875 333.472656 249.613281 333.0625 248.847656 332.492188 C 248.546875 332.269531 248.15625 332.207031 247.804688 332.332031 C 247.449219 332.457031 247.183594 332.75 247.089844 333.113281 L 223.792969 424.308594 L 220.390625 425.640625 L 247.441406 319.757812 C 247.675781 318.832031 248.511719 318.214844 249.425781 318.214844 Z M 278.453125 303.789062 C 278.773438 303.597656 279.132812 303.5 279.496094 303.5 C 279.664062 303.5 279.835938 303.523438 280.003906 303.566406 L 300.550781 308.820312 L 299.816406 311.699219 L 291.882812 309.667969 C 291.519531 309.578125 291.132812 309.671875 290.855469 309.921875 C 290.578125 310.171875 290.441406 310.542969 290.492188 310.914062 C 290.628906 311.855469 290.574219 312.808594 290.335938 313.734375 C 289.855469 315.621094 288.667969 317.210938 286.992188 318.203125 C 285.316406 319.195312 283.359375 319.476562 281.472656 318.996094 C 280.542969 318.757812 279.6875 318.347656 278.921875 317.777344 C 278.621094 317.554688 278.230469 317.496094 277.878906 317.617188 C 277.523438 317.742188 277.257812 318.035156 277.164062 318.398438 L 253.023438 412.886719 L 249.621094 414.214844 L 277.515625 305.042969 C 277.648438 304.515625 277.984375 304.066406 278.453125 303.789062 Z M 309.570312 288.789062 C 309.738281 288.789062 309.910156 288.808594 310.078125 288.851562 L 375.859375 305.679688 C 376.953125 305.960938 377.617188 307.078125 377.335938 308.175781 L 360.597656 373.691406 C 359.625 373.433594 358.640625 373.289062 357.648438 373.246094 L 371.238281 320.058594 C 371.328125 319.695312 371.234375 319.308594 370.984375 319.03125 C 370.738281 318.753906 370.363281 318.617188 369.992188 318.667969 C 369.050781 318.800781 368.101562 318.75 367.171875 318.511719 C 365.285156 318.03125 363.699219 316.839844 362.707031 315.164062 C 361.714844 313.492188 361.433594 311.527344 361.917969 309.640625 C 362.152344 308.710938 362.5625 307.855469 363.132812 307.089844 C 363.355469 306.789062 363.417969 306.398438 363.292969 306.042969 C 363.167969 305.691406 362.875 305.425781 362.511719 305.332031 L 321.953125 294.957031 C 321.589844 294.863281 321.207031 294.957031 320.929688 295.207031 C 320.648438 295.457031 320.515625 295.828125 320.566406 296.199219 C 320.699219 297.144531 320.648438 298.09375 320.410156 299.023438 C 319.414062 302.917969 315.4375 305.277344 311.546875 304.28125 C 310.617188 304.042969 309.757812 303.632812 308.996094 303.0625 C 308.695312 302.839844 308.304688 302.78125 307.949219 302.90625 C 307.597656 303.03125 307.332031 303.324219 307.238281 303.6875 L 282.257812 401.464844 L 278.855469 402.792969 L 307.585938 290.332031 C 307.824219 289.40625 308.660156 288.789062 309.570312 288.789062 Z M 387.019531 402.722656 L 394.570312 422.066406 C 396.449219 426.882812 394.066406 432.332031 389.253906 434.210938 L 344.351562 451.757812 C 342.019531 452.667969 339.476562 452.617188 337.1875 451.613281 C 335.464844 450.855469 334.042969 449.632812 333.054688 448.082031 C 332.726562 447.566406 332.445312 447.015625 332.21875 446.433594 C 331.75 445.230469 331.546875 443.984375 331.582031 442.769531 C 331.683594 439.117188 333.929688 435.703125 337.535156 434.292969 L 381.96875 416.929688 C 382.144531 416.859375 382.320312 416.773438 382.503906 416.664062 C 383.859375 415.828125 384.421875 414.144531 383.84375 412.660156 L 380.980469 405.324219 C 380.523438 404.148438 379.453125 403.367188 378.253906 403.238281 L 375.851562 397.082031 C 377.90625 396.519531 380.078125 396.679688 382.058594 397.546875 C 384.347656 398.554688 386.113281 400.390625 387.019531 402.722656 Z M 209.527344 439.921875 C 203.570312 442.253906 196.832031 439.296875 194.503906 433.335938 L 193.847656 431.65625 C 197.53125 434.285156 202.425781 435.066406 206.945312 433.300781 L 352.871094 376.277344 C 355.753906 375.152344 358.90625 375.214844 361.746094 376.460938 C 364.582031 377.707031 366.765625 379.980469 367.894531 382.867188 L 368.550781 384.554688 C 364.871094 381.921875 359.976562 381.132812 355.453125 382.898438 Z M 206.128906 431.210938 C 203.941406 432.066406 201.648438 432.203125 199.507812 431.746094 L 218.398438 424.363281 L 217.816406 426.644531 Z M 196.34375 430.574219 C 194.886719 429.777344 193.601562 428.660156 192.585938 427.285156 L 220.433594 416.40625 L 219.082031 421.6875 Z M 262.433594 329.003906 C 262.609375 328.320312 262.707031 327.628906 262.730469 326.933594 L 269.183594 328.585938 L 259.683594 365.773438 C 250.828125 371.039062 242.792969 382.75 239.027344 397.496094 C 237.132812 404.914062 236.492188 412.335938 237.113281 419.101562 L 226.363281 423.304688 L 248.886719 335.144531 C 249.503906 335.460938 250.160156 335.707031 250.839844 335.882812 C 255.933594 337.1875 261.132812 334.097656 262.433594 329.003906 Z M 251.746094 394.753906 C 250.871094 395.925781 250.191406 397.203125 249.699219 398.582031 L 246.503906 397.765625 C 246.167969 397.679688 245.867188 397.703125 245.601562 397.839844 C 245.332031 397.976562 245.160156 398.203125 245.082031 398.507812 C 244.996094 398.84375 245.039062 399.136719 245.207031 399.382812 C 245.375 399.632812 245.628906 399.800781 245.960938 399.882812 L 249.15625 400.703125 C 248.847656 402.347656 248.871094 403.894531 249.226562 405.339844 C 249.277344 405.554688 249.351562 405.753906 249.417969 405.960938 L 247.050781 415.21875 L 239.292969 418.25 C 238.792969 411.917969 239.425781 404.992188 241.199219 398.050781 C 244.554688 384.921875 251.332031 374.292969 258.890625 368.878906 L 252.511719 393.839844 C 252.246094 394.125 251.988281 394.425781 251.746094 394.753906 Z M 278.960938 320.433594 C 279.578125 320.746094 280.234375 320.996094 280.914062 321.167969 C 283.382812 321.796875 285.945312 321.429688 288.136719 320.132812 C 290.324219 318.835938 291.878906 316.761719 292.507812 314.292969 C 292.683594 313.609375 292.78125 312.917969 292.804688 312.21875 L 299.257812 313.871094 L 289.757812 351.066406 C 280.902344 356.332031 272.867188 368.039062 269.101562 382.78125 C 266.886719 391.449219 266.476562 399.898438 267.570312 407.199219 L 255.59375 411.882812 Z M 282.585938 379.128906 C 282.320312 379.414062 282.0625 379.714844 281.820312 380.039062 C 280.945312 381.210938 280.265625 382.488281 279.773438 383.867188 L 276.578125 383.050781 C 276.242188 382.964844 275.941406 382.992188 275.675781 383.128906 C 275.40625 383.265625 275.234375 383.488281 275.15625 383.796875 C 275.070312 384.128906 275.113281 384.421875 275.28125 384.667969 C 275.449219 384.917969 275.703125 385.085938 276.035156 385.171875 L 279.234375 385.988281 C 278.921875 387.632812 278.945312 389.179688 279.300781 390.625 C 279.351562 390.839844 279.425781 391.042969 279.492188 391.246094 L 276.285156 403.796875 L 269.664062 406.382812 C 268.730469 399.503906 269.179688 391.53125 271.273438 383.339844 C 274.628906 370.207031 281.40625 359.582031 288.964844 354.167969 Z M 309.035156 305.71875 C 309.652344 306.035156 310.308594 306.28125 310.992188 306.457031 C 316.082031 307.757812 321.28125 304.671875 322.582031 299.578125 C 322.757812 298.894531 322.855469 298.203125 322.878906 297.507812 L 360.480469 307.125 C 360.164062 307.746094 359.917969 308.402344 359.746094 309.085938 C 359.113281 311.550781 359.480469 314.117188 360.78125 316.308594 C 362.078125 318.5 364.152344 320.054688 366.617188 320.683594 C 367.300781 320.859375 367.992188 320.957031 368.6875 320.980469 L 355.308594 373.351562 C 354.207031 373.496094 353.113281 373.773438 352.054688 374.1875 L 348.480469 375.585938 C 350.136719 366.53125 349.914062 357.6875 347.78125 350.265625 C 345.214844 341.320312 340.191406 335.472656 333.636719 333.792969 C 327.082031 332.117188 319.867188 334.835938 313.324219 341.453125 C 306.933594 347.914062 301.910156 357.363281 299.175781 368.070312 C 296.742188 377.601562 296.378906 387.128906 298.097656 395.273438 L 284.828125 400.457031 Z M 337.003906 378.363281 L 339.644531 379.039062 L 336.230469 380.371094 C 336.53125 379.714844 336.792969 379.046875 337.003906 378.363281 Z M 341.507812 377.523438 C 341.339844 377.273438 341.085938 377.105469 340.753906 377.019531 L 337.519531 376.191406 C 337.898438 373.742188 337.597656 371.621094 336.621094 369.824219 C 335.644531 368.027344 334.152344 366.871094 332.148438 366.359375 C 330.609375 365.964844 329.28125 366.042969 328.171875 366.59375 C 327.058594 367.144531 326.132812 367.933594 325.390625 368.964844 C 324.648438 369.992188 323.808594 371.386719 322.863281 373.144531 C 322.035156 374.683594 321.3125 375.902344 320.699219 376.800781 C 320.085938 377.695312 319.335938 378.386719 318.445312 378.871094 C 317.558594 379.355469 316.535156 379.449219 315.378906 379.152344 C 313.683594 378.71875 312.5 377.761719 311.824219 376.273438 C 311.152344 374.785156 311.082031 372.992188 311.621094 370.882812 C 312.003906 369.394531 312.566406 368.152344 313.3125 367.167969 C 314.054688 366.179688 315.097656 365.214844 316.433594 364.269531 C 316.761719 364.050781 316.964844 363.789062 317.042969 363.480469 C 317.097656 363.277344 317.042969 363.0625 316.878906 362.84375 C 316.714844 362.625 316.492188 362.476562 316.210938 362.40625 C 315.800781 362.300781 315.382812 362.371094 314.964844 362.621094 C 313.792969 363.25 312.769531 364.152344 311.894531 365.324219 C 311.019531 366.5 310.335938 367.773438 309.847656 369.15625 L 306.648438 368.335938 C 306.316406 368.253906 306.015625 368.277344 305.746094 368.414062 C 305.480469 368.550781 305.308594 368.773438 305.226562 369.082031 C 305.144531 369.417969 305.183594 369.707031 305.355469 369.957031 C 305.523438 370.203125 305.773438 370.371094 306.109375 370.457031 L 309.304688 371.273438 C 308.996094 372.921875 309.019531 374.464844 309.375 375.910156 C 309.730469 377.359375 310.375 378.570312 311.316406 379.550781 C 312.257812 380.53125 313.417969 381.199219 314.804688 381.554688 C 316.476562 381.980469 317.910156 381.902344 319.113281 381.320312 C 320.316406 380.738281 321.308594 379.910156 322.089844 378.835938 C 322.867188 377.761719 323.753906 376.3125 324.738281 374.484375 C 325.558594 372.996094 326.25 371.832031 326.820312 370.992188 C 327.390625 370.152344 328.070312 369.503906 328.855469 369.046875 C 329.644531 368.59375 330.539062 368.492188 331.539062 368.75 C 333.234375 369.183594 334.394531 370.128906 335.019531 371.589844 C 335.644531 373.050781 335.683594 374.859375 335.132812 377.019531 C 334.699219 378.703125 333.90625 380.273438 332.753906 381.730469 L 300.210938 394.445312 C 298.648438 386.71875 299.03125 377.683594 301.347656 368.625 C 303.984375 358.300781 308.804688 349.210938 314.917969 343.03125 C 319.765625 338.128906 324.933594 335.554688 329.789062 335.554688 C 330.90625 335.554688 332.007812 335.691406 333.082031 335.964844 C 338.832031 337.4375 343.289062 342.738281 345.628906 350.886719 C 347.769531 358.351562 347.886719 367.355469 346.011719 376.546875 L 341.65625 378.25 C 341.699219 377.976562 341.652344 377.734375 341.507812 377.523438 Z M 362.71875 374.441406 L 363.464844 371.519531 L 365.148438 375.832031 C 364.394531 375.296875 363.585938 374.828125 362.71875 374.441406 Z M 221.117188 413.730469 L 191.425781 425.332031 C 191.3125 425.097656 191.199219 424.867188 191.105469 424.621094 C 189.976562 421.734375 190.042969 418.582031 191.285156 415.742188 C 192.527344 412.902344 194.804688 410.714844 197.691406 409.589844 L 224.890625 398.957031 Z M 315.699219 519.285156 C 315.921875 519.863281 315.636719 520.515625 315.0625 520.738281 L 305.9375 524.304688 C 305.804688 524.355469 305.667969 524.382812 305.53125 524.382812 C 305.082031 524.382812 304.660156 524.109375 304.488281 523.667969 C 304.261719 523.089844 304.546875 522.441406 305.125 522.214844 L 314.246094 518.648438 C 314.820312 518.425781 315.472656 518.710938 315.699219 519.285156 Z M 297.453125 526.414062 C 297.679688 526.992188 297.394531 527.644531 296.816406 527.867188 L 287.695312 531.433594 C 287.558594 531.484375 287.421875 531.511719 287.285156 531.511719 C 286.839844 531.511719 286.414062 531.238281 286.242188 530.796875 C 286.015625 530.21875 286.300781 529.570312 286.878906 529.34375 L 296 525.777344 C 296.578125 525.554688 297.226562 525.835938 297.453125 526.414062 Z M 279.210938 533.542969 C 279.433594 534.121094 279.148438 534.773438 278.574219 534.996094 L 269.449219 538.5625 C 269.316406 538.613281 269.179688 538.636719 269.042969 538.636719 C 268.59375 538.636719 268.171875 538.367188 268 537.925781 C 267.773438 537.347656 268.058594 536.695312 268.636719 536.472656 L 277.757812 532.90625 C 278.332031 532.683594 278.984375 532.96875 279.210938 533.542969 Z M 370.429688 497.898438 C 370.65625 498.476562 370.371094 499.125 369.792969 499.351562 L 360.671875 502.917969 C 360.535156 502.96875 360.398438 502.992188 360.261719 502.992188 C 359.816406 502.992188 359.390625 502.722656 359.21875 502.28125 C 358.992188 501.703125 359.277344 501.050781 359.855469 500.828125 L 368.976562 497.261719 C 369.554688 497.035156 370.203125 497.320312 370.429688 497.898438 Z M 388.671875 490.769531 C 388.898438 491.347656 388.613281 491.996094 388.039062 492.222656 L 378.914062 495.785156 C 378.78125 495.839844 378.644531 495.863281 378.507812 495.863281 C 378.058594 495.863281 377.636719 495.59375 377.464844 495.148438 C 377.238281 494.574219 377.523438 493.921875 378.097656 493.695312 L 387.222656 490.132812 C 387.796875 489.90625 388.449219 490.191406 388.671875 490.769531 Z M 260.328125 542.125 L 251.207031 545.691406 C 251.070312 545.742188 250.933594 545.769531 250.796875 545.769531 C 250.351562 545.769531 249.925781 545.496094 249.753906 545.054688 C 249.527344 544.476562 249.8125 543.828125 250.390625 543.601562 L 259.511719 540.035156 C 260.089844 539.8125 260.738281 540.097656 260.964844 540.671875 C 261.191406 541.25 260.90625 541.902344 260.328125 542.125 Z M 333.941406 512.15625 C 334.167969 512.734375 333.882812 513.382812 333.304688 513.609375 L 324.183594 517.175781 C 324.046875 517.226562 323.910156 517.25 323.773438 517.25 C 323.328125 517.25 322.902344 516.980469 322.730469 516.539062 C 322.503906 515.960938 322.789062 515.308594 323.367188 515.082031 L 332.488281 511.519531 C 333.066406 511.292969 333.714844 511.578125 333.941406 512.15625 Z M 352.1875 505.027344 C 352.410156 505.605469 352.125 506.253906 351.550781 506.480469 L 342.425781 510.046875 C 342.292969 510.097656 342.15625 510.121094 342.019531 510.121094 C 341.570312 510.121094 341.148438 509.851562 340.976562 509.410156 C 340.75 508.832031 341.035156 508.179688 341.613281 507.957031 L 350.734375 504.390625 C 351.308594 504.164062 351.960938 504.449219 352.1875 505.027344 Z M 386.167969 452.050781 L 382.605469 442.921875 C 382.382812 442.34375 382.664062 441.695312 383.242188 441.46875 C 383.820312 441.246094 384.46875 441.527344 384.695312 442.105469 L 388.257812 451.234375 C 388.480469 451.8125 388.195312 452.460938 387.621094 452.6875 C 387.484375 452.738281 387.347656 452.765625 387.210938 452.765625 C 386.765625 452.765625 386.339844 452.496094 386.167969 452.050781 Z M 389.730469 461.179688 C 389.503906 460.601562 389.789062 459.953125 390.367188 459.726562 C 390.945312 459.503906 391.59375 459.785156 391.820312 460.363281 L 395.382812 469.492188 C 395.605469 470.066406 395.320312 470.71875 394.746094 470.945312 C 394.609375 470.996094 394.472656 471.023438 394.335938 471.023438 C 393.890625 471.023438 393.464844 470.75 393.292969 470.308594 Z M 370.445312 405.59375 L 374.007812 414.722656 C 374.234375 415.300781 373.949219 415.949219 373.371094 416.175781 C 373.238281 416.226562 373.097656 416.253906 372.964844 416.253906 C 372.515625 416.253906 372.09375 415.984375 371.917969 415.539062 L 368.355469 406.410156 C 368.132812 405.835938 368.417969 405.183594 368.992188 404.957031 C 369.570312 404.734375 370.21875 405.019531 370.445312 405.59375 Z M 212.796875 447.375 L 221.921875 443.8125 C 222.496094 443.585938 223.148438 443.871094 223.371094 444.449219 C 223.597656 445.027344 223.3125 445.675781 222.734375 445.902344 L 213.613281 449.46875 C 213.480469 449.519531 213.34375 449.542969 213.207031 449.542969 C 212.757812 449.542969 212.335938 449.273438 212.160156 448.832031 C 211.9375 448.253906 212.222656 447.601562 212.796875 447.375 Z M 230.40625 441.699219 C 230.179688 441.125 230.464844 440.472656 231.042969 440.246094 L 240.164062 436.683594 C 240.742188 436.457031 241.390625 436.742188 241.617188 437.320312 C 241.84375 437.898438 241.558594 438.546875 240.980469 438.773438 L 231.859375 442.339844 C 231.722656 442.390625 231.585938 442.414062 231.449219 442.414062 C 231.003906 442.414062 230.578125 442.144531 230.40625 441.699219 Z M 266.894531 427.441406 C 266.667969 426.867188 266.953125 426.214844 267.53125 425.988281 L 276.652344 422.425781 C 277.230469 422.199219 277.878906 422.484375 278.105469 423.0625 C 278.332031 423.636719 278.046875 424.289062 277.46875 424.515625 L 268.347656 428.078125 C 268.210938 428.132812 268.074219 428.15625 267.9375 428.15625 C 267.492188 428.15625 267.066406 427.886719 266.894531 427.441406 Z M 249.285156 433.117188 L 258.410156 429.554688 C 258.984375 429.328125 259.636719 429.613281 259.859375 430.191406 C 260.085938 430.769531 259.800781 431.417969 259.222656 431.644531 L 250.101562 435.207031 C 249.96875 435.261719 249.832031 435.285156 249.695312 435.285156 C 249.246094 435.285156 248.824219 435.015625 248.648438 434.570312 C 248.425781 433.996094 248.710938 433.34375 249.285156 433.117188 Z M 358.839844 390.328125 C 359.375 390.167969 359.925781 390.085938 360.484375 390.085938 C 362.824219 390.085938 364.964844 391.546875 365.8125 393.722656 L 366.882812 396.46875 C 367.109375 397.042969 366.824219 397.695312 366.246094 397.917969 C 366.113281 397.972656 365.976562 397.996094 365.839844 397.996094 C 365.390625 397.996094 364.96875 397.726562 364.796875 397.28125 L 363.722656 394.539062 C 363.207031 393.214844 361.90625 392.328125 360.484375 392.328125 C 360.148438 392.328125 359.8125 392.378906 359.488281 392.476562 C 358.894531 392.65625 358.269531 392.320312 358.09375 391.726562 C 357.914062 391.132812 358.25 390.507812 358.839844 390.328125 Z M 285.773438 418.859375 L 294.898438 415.296875 C 295.472656 415.070312 296.125 415.355469 296.347656 415.933594 C 296.574219 416.507812 296.289062 417.160156 295.714844 417.386719 L 286.589844 420.949219 C 286.457031 421.003906 286.320312 421.027344 286.183594 421.027344 C 285.734375 421.027344 285.3125 420.757812 285.140625 420.3125 C 284.914062 419.734375 285.199219 419.085938 285.773438 418.859375 Z M 322.261719 404.601562 L 331.386719 401.039062 C 331.960938 400.8125 332.613281 401.097656 332.835938 401.675781 C 333.0625 402.25 332.777344 402.902344 332.203125 403.128906 L 323.078125 406.691406 C 322.945312 406.742188 322.808594 406.769531 322.671875 406.769531 C 322.222656 406.769531 321.800781 406.496094 321.628906 406.054688 C 321.402344 405.476562 321.6875 404.828125 322.261719 404.601562 Z M 340.507812 397.472656 L 349.628906 393.90625 C 350.207031 393.683594 350.855469 393.96875 351.082031 394.546875 C 351.308594 395.121094 351.023438 395.773438 350.445312 396 L 341.324219 399.5625 C 341.1875 399.613281 341.050781 399.640625 340.914062 399.640625 C 340.46875 399.640625 340.042969 399.371094 339.871094 398.925781 C 339.644531 398.347656 339.929688 397.699219 340.507812 397.472656 Z M 313.140625 408.167969 C 313.71875 407.941406 314.367188 408.226562 314.59375 408.804688 C 314.820312 409.378906 314.535156 410.03125 313.957031 410.257812 L 304.835938 413.820312 C 304.699219 413.871094 304.5625 413.898438 304.425781 413.898438 C 303.980469 413.898438 303.554688 413.628906 303.382812 413.183594 C 303.15625 412.605469 303.441406 411.957031 304.019531 411.730469 Z M 400.421875 483.472656 C 400.421875 485.632812 399.171875 487.644531 397.242188 488.601562 C 397.082031 488.679688 396.914062 488.71875 396.746094 488.71875 C 396.332031 488.71875 395.9375 488.488281 395.738281 488.09375 C 395.464844 487.539062 395.691406 486.867188 396.246094 486.589844 C 397.421875 486.011719 398.175781 484.785156 398.175781 483.472656 C 398.175781 483.042969 398.097656 482.617188 397.9375 482.214844 L 396.855469 479.4375 C 396.628906 478.859375 396.914062 478.207031 397.492188 477.980469 C 398.066406 477.757812 398.71875 478.042969 398.945312 478.621094 L 400.027344 481.398438 C 400.289062 482.0625 400.421875 482.761719 400.421875 483.472656 Z M 339.808594 435.816406 C 336.121094 437.257812 334.292969 441.429688 335.730469 445.121094 C 336.835938 447.957031 339.554688 449.691406 342.425781 449.691406 C 343.292969 449.691406 344.175781 449.535156 345.03125 449.199219 C 348.71875 447.757812 350.546875 443.585938 349.105469 439.894531 C 347.667969 436.203125 343.496094 434.375 339.808594 435.816406 Z M 337.820312 444.304688 C 336.828125 441.769531 338.085938 438.894531 340.621094 437.90625 C 341.210938 437.675781 341.816406 437.566406 342.414062 437.566406 C 344.386719 437.566406 346.257812 438.761719 347.019531 440.710938 C 348.007812 443.246094 346.75 446.121094 344.214844 447.109375 C 341.679688 448.101562 338.808594 446.84375 337.820312 444.304688 Z M 337.820312 444.304688 " fill-opacity="1" fill-rule="nonzero"/></g></svg>